<svg width="70" height="70" viewBox="0 0 70 70" fill="none" xmlns="http://www.w3.org/2000/svg">
<path d="M35 0C28.0777 0 21.3108 2.05271 15.5551 5.89856C9.79933 9.74441 5.3133 15.2107 2.66423 21.6061C0.0151644 28.0015 -0.677951 35.0388 0.672531 41.8282C2.02301 48.6175 5.35644 54.8539 10.2513 59.7487C15.1461 64.6436 21.3825 67.977 28.1718 69.3275C34.9612 70.6779 41.9985 69.9848 48.3939 67.3358C54.7893 64.6867 60.2556 60.2007 64.1014 54.4449C67.9473 48.6892 70 41.9223 70 35C69.9891 25.7208 66.2981 16.8247 59.7367 10.2633C53.1753 3.70189 44.2792 0.0108975 35 0ZM35 65.8823C28.8921 65.8823 22.9213 64.0711 17.8427 60.6777C12.7641 57.2843 8.80585 52.4612 6.46844 46.8182C4.13103 41.1751 3.51946 34.9657 4.71106 28.9751C5.90266 22.9846 8.84392 17.4818 13.1629 13.1629C17.4819 8.8439 22.9846 5.90264 28.9752 4.71104C34.9657 3.51944 41.1752 4.13101 46.8182 6.46842C52.4612 8.80584 57.2843 12.7641 60.6777 17.8427C64.0711 22.9213 65.8824 28.892 65.8824 35C65.8733 43.1877 62.6167 51.0375 56.8271 56.8271C51.0375 62.6167 43.1877 65.8733 35 65.8823ZM56.2745 35C56.2745 35.546 56.0576 36.0697 55.6715 36.4558C55.2854 36.8419 54.7617 37.0588 54.2157 37.0588H35C34.454 37.0588 33.9303 36.8419 33.5442 36.4558C33.1581 36.0697 32.9412 35.546 32.9412 35V15.7843C32.9412 15.2383 33.1581 14.7146 33.5442 14.3285C33.9303 13.9424 34.454 13.7255 35 13.7255C35.546 13.7255 36.0697 13.9424 36.4558 14.3285C36.8419 14.7146 37.0588 15.2383 37.0588 15.7843V32.9412H54.2157C54.7617 32.9412 55.2854 33.1581 55.6715 33.5442C56.0576 33.9303 56.2745 34.454 56.2745 35Z" fill="#DFC19F"/>
</svg>
