<svg width="18" height="18" viewBox="0 0 18 18" fill="none" xmlns="http://www.w3.org/2000/svg">
<path d="M11.2695 5.45959H7.03833C6.61966 5.45959 6.21813 5.62591 5.92208 5.92196C5.62603 6.21801 5.45972 6.61953 5.45972 7.03821V11.3646C5.45972 11.5719 5.50055 11.7772 5.57988 11.9687C5.65921 12.1602 5.77549 12.3342 5.92208 12.4808C6.06867 12.6274 6.2427 12.7437 6.43422 12.823C6.62575 12.9024 6.83102 12.9432 7.03833 12.9432H11.2695C11.4769 12.9432 11.6821 12.9024 11.8737 12.823C12.0652 12.7437 12.2392 12.6274 12.3858 12.4808C12.5324 12.3342 12.6487 12.1602 12.728 11.9687C12.8073 11.7772 12.8482 11.5719 12.8482 11.3646V7.04601C12.849 6.8381 12.8088 6.63208 12.7298 6.43975C12.6509 6.24741 12.5348 6.07255 12.3881 5.92517C12.2415 5.7778 12.0672 5.66081 11.8752 5.58092C11.6833 5.50103 11.4775 5.4598 11.2695 5.45959ZM9.15355 11.4831C8.73469 11.4926 8.32251 11.377 7.96962 11.1512C7.61673 10.9254 7.33912 10.5995 7.17224 10.2152C7.00535 9.83092 6.95676 9.40562 7.03265 8.99359C7.10854 8.58155 7.30548 8.20147 7.59834 7.90186C7.89119 7.60224 8.26667 7.39668 8.67687 7.3114C9.08707 7.22613 9.51337 7.265 9.90137 7.42307C10.2894 7.58115 10.6215 7.85124 10.8553 8.19889C11.0891 8.54653 11.2141 8.95597 11.2142 9.37493C11.2174 9.64868 11.1666 9.92037 11.0648 10.1745C10.9629 10.4286 10.812 10.6602 10.6206 10.856C10.4293 11.0517 10.2012 11.2079 9.94949 11.3155C9.69776 11.4231 9.4273 11.4801 9.15355 11.4831ZM11.4435 7.26751C11.392 7.26752 11.3411 7.25727 11.2936 7.23734C11.2462 7.21741 11.2032 7.18822 11.1671 7.15146C11.1311 7.11471 11.1028 7.07114 11.0838 7.0233C11.0648 6.97546 11.0556 6.92432 11.0566 6.87286C11.0566 6.76819 11.0982 6.66781 11.1722 6.5938C11.2462 6.51979 11.3466 6.47821 11.4513 6.47821C11.5559 6.47821 11.6563 6.51979 11.7303 6.5938C11.8043 6.66781 11.8459 6.76819 11.8459 6.87286C11.8475 6.92858 11.837 6.98397 11.8151 7.03525C11.7933 7.08653 11.7606 7.13248 11.7193 7.16996C11.6781 7.20744 11.6292 7.23556 11.5761 7.25239C11.523 7.26923 11.4668 7.27439 11.4115 7.26751H11.4435Z" fill="#3A3A3A"/>
<path d="M10.3702 9.36728C10.3655 9.61436 10.2876 9.85447 10.1462 10.0572C10.0049 10.2599 9.80658 10.4161 9.57637 10.506C9.34617 10.5958 9.09447 10.6153 8.85318 10.562C8.61189 10.5087 8.39186 10.3849 8.22099 10.2063C8.05013 10.0278 7.93612 9.80256 7.89341 9.55916C7.8507 9.31576 7.88123 9.06515 7.98111 8.83912C8.08099 8.61308 8.24573 8.42179 8.45445 8.28949C8.66317 8.15719 8.90648 8.08983 9.15352 8.09597C9.4818 8.10812 9.79244 8.24766 10.0196 8.48499C10.2467 8.72232 10.3725 9.03878 10.3702 9.36728Z" fill="#3A3A3A"/>
<path d="M9.02992 0.000112467C6.64698 -0.0118022 4.35691 0.92339 2.66349 2.59996C0.970073 4.27653 0.0120272 6.55713 0.000112467 8.94007C-0.0118022 11.323 0.92339 13.6131 2.59996 15.3065C4.27653 16.9999 6.55713 17.958 8.94007 17.9699C10.12 17.9758 11.2895 17.7492 12.3819 17.3031C13.4742 16.8571 14.468 16.2002 15.3065 15.37C16.145 14.5399 16.8118 13.5527 17.2688 12.4649C17.7257 11.377 17.964 10.2098 17.9699 9.02992C17.9758 7.85001 17.7492 6.68049 17.3031 5.58814C16.8571 4.49578 16.2002 3.50199 15.37 2.66349C14.5399 1.825 13.5527 1.15822 12.4649 0.701238C11.377 0.244255 10.2098 0.00601203 9.02992 0.000112467ZM14.4864 11.4127C14.489 11.8158 14.4114 12.2154 14.2583 12.5883C14.1053 12.9612 13.8797 13.3 13.5947 13.5851C13.3097 13.8702 12.971 14.0958 12.5981 14.249C12.2252 14.4022 11.8257 14.4798 11.4226 14.4775H6.63905C6.23602 14.4797 5.83655 14.402 5.46375 14.2489C5.09096 14.0957 4.75224 13.8701 4.46722 13.5852C4.18219 13.3002 3.95651 12.9616 3.80324 12.5888C3.64997 12.2161 3.57216 11.8166 3.5743 11.4136V6.62916C3.5718 6.22607 3.64933 5.82649 3.8024 5.45359C3.95548 5.08068 4.18105 4.74187 4.46604 4.4568C4.75104 4.17172 5.08978 3.94605 5.46264 3.79287C5.8355 3.63968 6.23505 3.56203 6.63815 3.56442H11.4226C11.8256 3.56203 12.2251 3.63965 12.5979 3.79278C12.9707 3.94591 13.3094 4.1715 13.5944 4.45648C13.8794 4.74146 14.105 5.08016 14.2581 5.45296C14.4112 5.82576 14.4888 6.22525 14.4864 6.62826V11.4127Z" fill="#3A3A3A"/>
</svg>
