<svg width="196" height="38" viewBox="0 0 196 38" fill="none" xmlns="http://www.w3.org/2000/svg">
<path d="M46.064 11.7837C46.064 11.8717 45.9907 11.9304 45.844 11.9597C45.6973 11.9597 45.6093 11.9157 45.58 11.8277C45.492 10.273 45.0227 9.07037 44.172 8.21971C43.3213 7.33971 42.192 6.89971 40.784 6.89971H38.1C37.1027 6.89971 36.3547 6.97304 35.856 7.11971C35.3573 7.26637 35.0053 7.53037 34.8 7.91171C34.624 8.29304 34.536 8.85037 34.536 9.58371V19.2197H38.98C40.5347 19.2197 41.6347 18.985 42.28 18.5157C42.9547 18.017 43.292 17.225 43.292 16.1397C43.292 16.081 43.38 16.0517 43.556 16.0517C43.732 16.0517 43.82 16.081 43.82 16.1397L43.776 19.7037C43.776 20.5544 43.7907 21.1997 43.82 21.6397L43.864 23.7517C43.864 23.8104 43.776 23.8397 43.6 23.8397C43.424 23.8397 43.336 23.8104 43.336 23.7517C43.336 22.461 42.984 21.537 42.28 20.9797C41.6053 20.4224 40.4613 20.1437 38.848 20.1437H34.536V29.7357C34.536 30.6744 34.6533 31.3637 34.888 31.8037C35.152 32.2144 35.6507 32.5077 36.384 32.6837C37.1173 32.8597 38.276 32.9477 39.86 32.9477C39.948 32.9477 39.992 33.0357 39.992 33.2117C39.992 33.3877 39.948 33.4757 39.86 33.4757C38.6573 33.4757 37.7187 33.461 37.044 33.4317L33.084 33.3877L30.092 33.4317C29.564 33.461 28.816 33.4757 27.848 33.4757C27.7893 33.4757 27.76 33.3877 27.76 33.2117C27.76 33.0357 27.7893 32.9477 27.848 32.9477C28.9627 32.9477 29.784 32.8744 30.312 32.7277C30.84 32.581 31.192 32.3024 31.368 31.8917C31.5733 31.4517 31.676 30.7917 31.676 29.9117V9.53971C31.676 8.65971 31.5733 8.01437 31.368 7.60371C31.192 7.19304 30.84 6.91437 30.312 6.76771C29.8133 6.59171 29.0067 6.50371 27.892 6.50371C27.8333 6.50371 27.804 6.41571 27.804 6.23971C27.804 6.06371 27.8333 5.97571 27.892 5.97571H45.58C45.844 5.97571 45.976 6.10771 45.976 6.37171L46.064 11.7837ZM69.2867 26.9197C69.2867 26.861 69.3454 26.8317 69.4627 26.8317C69.5507 26.8317 69.6241 26.8464 69.6827 26.8757C69.7707 26.905 69.8147 26.949 69.8147 27.0077C69.5507 28.8557 69.4187 30.7917 69.4187 32.8157C69.4187 33.0504 69.3601 33.2264 69.2427 33.3437C69.1547 33.4317 68.9787 33.4757 68.7147 33.4757H50.2787C50.2201 33.4757 50.1907 33.3877 50.1907 33.2117C50.1907 33.0357 50.2201 32.9477 50.2787 32.9477C51.3934 32.9477 52.2001 32.8744 52.6987 32.7277C53.2267 32.581 53.5787 32.3024 53.7547 31.8917C53.9601 31.4517 54.0627 30.7917 54.0627 29.9117V9.53971C54.0627 8.65971 53.9601 8.01437 53.7547 7.60371C53.5787 7.19304 53.2267 6.91437 52.6987 6.76771C52.2001 6.59171 51.3934 6.50371 50.2787 6.50371C50.2201 6.50371 50.1907 6.41571 50.1907 6.23971C50.1907 6.06371 50.2201 5.97571 50.2787 5.97571H67.9667C68.2307 5.97571 68.3627 6.10771 68.3627 6.37171L68.4507 11.7837C68.4507 11.8717 68.3774 11.9304 68.2307 11.9597C68.0841 11.9597 67.9961 11.9157 67.9667 11.8277C67.8787 10.273 67.4094 9.07037 66.5587 8.21971C65.7081 7.33971 64.5787 6.89971 63.1707 6.89971H60.4867C59.4601 6.89971 58.6974 6.98771 58.1987 7.16371C57.7294 7.31037 57.3921 7.58904 57.1867 7.99971C57.0107 8.38104 56.9227 8.96771 56.9227 9.75971V18.6917H62.2907C63.6987 18.6917 64.6961 18.457 65.2827 17.9877C65.8987 17.5184 66.2067 16.7264 66.2067 15.6117C66.2067 15.553 66.2947 15.5237 66.4707 15.5237C66.6467 15.5237 66.7347 15.553 66.7347 15.6117L66.6907 19.1757C66.6907 20.0264 66.7054 20.6717 66.7347 21.1117L66.7787 23.2237C66.7787 23.2824 66.6907 23.3117 66.5147 23.3117C66.3387 23.3117 66.2507 23.2824 66.2507 23.2237C66.2507 21.933 65.9281 21.009 65.2827 20.4517C64.6667 19.8944 63.6254 19.6157 62.1587 19.6157H56.9227V29.7357C56.9227 30.557 57.0107 31.1584 57.1867 31.5397C57.3627 31.921 57.6854 32.185 58.1547 32.3317C58.6241 32.4784 59.3574 32.5517 60.3547 32.5517H63.8747C65.2827 32.5517 66.4561 32.053 67.3947 31.0557C68.3334 30.0584 68.9641 28.6797 69.2867 26.9197ZM107.748 32.9477C107.836 32.9477 107.88 33.0357 107.88 33.2117C107.88 33.3877 107.836 33.4757 107.748 33.4757C106.838 33.4757 106.12 33.461 105.592 33.4317L102.556 33.3877L99.7395 33.4317C99.2702 33.461 98.6102 33.4757 97.7595 33.4757C97.7009 33.4757 97.6715 33.3877 97.6715 33.2117C97.6715 33.0357 97.7009 32.9477 97.7595 32.9477C98.7569 32.9477 99.4902 32.8744 99.9595 32.7277C100.458 32.5517 100.781 32.2584 100.928 31.8477C101.104 31.437 101.162 30.7917 101.104 29.9117L100.312 9.89171L90.2795 33.1677C90.2209 33.285 90.1035 33.3437 89.9275 33.3437C89.7809 33.3437 89.6489 33.285 89.5315 33.1677L78.7075 10.1557L78.3115 28.6797C78.2822 30.2344 78.5462 31.3344 79.1035 31.9797C79.6609 32.625 80.6435 32.9477 82.0515 32.9477C82.1102 32.9477 82.1395 33.0357 82.1395 33.2117C82.1395 33.3877 82.1102 33.4757 82.0515 33.4757C81.2302 33.4757 80.5995 33.461 80.1595 33.4317L77.7835 33.3877L75.4955 33.4317C75.0849 33.461 74.4982 33.4757 73.7355 33.4757C73.6769 33.4757 73.6475 33.3877 73.6475 33.2117C73.6475 33.0357 73.6769 32.9477 73.7355 32.9477C74.9675 32.9477 75.8475 32.625 76.3755 31.9797C76.9329 31.305 77.2262 30.205 77.2555 28.6797L77.6515 8.26371C76.7715 7.09037 75.5689 6.50371 74.0435 6.50371C73.9849 6.50371 73.9555 6.41571 73.9555 6.23971C73.9555 6.06371 73.9849 5.97571 74.0435 5.97571L75.6715 6.01971C75.9649 6.04904 76.3755 6.06371 76.9035 6.06371C77.4315 6.06371 77.8715 6.04904 78.2235 6.01971C78.6049 5.99037 78.8982 5.97571 79.1035 5.97571C79.4849 5.97571 79.7929 6.12237 80.0275 6.41571C80.2915 6.67971 80.6582 7.29571 81.1275 8.26371L90.9395 28.9437L100.532 7.07571C100.854 6.34237 101.294 5.97571 101.852 5.97571C101.998 5.97571 102.204 5.99037 102.468 6.01971C102.761 6.04904 103.142 6.06371 103.612 6.06371L105.68 6.01971C106.002 5.99037 106.486 5.97571 107.132 5.97571C107.22 5.97571 107.264 6.06371 107.264 6.23971C107.264 6.41571 107.22 6.50371 107.132 6.50371C105.665 6.50371 104.609 6.72371 103.964 7.16371C103.348 7.57437 103.054 8.36637 103.084 9.53971L103.964 29.9117C103.993 30.821 104.096 31.481 104.272 31.8917C104.477 32.3024 104.829 32.581 105.328 32.7277C105.826 32.8744 106.633 32.9477 107.748 32.9477ZM117.557 29.9117C117.557 30.7917 117.645 31.4517 117.821 31.8917C117.997 32.3024 118.334 32.581 118.833 32.7277C119.361 32.8744 120.182 32.9477 121.297 32.9477C121.385 32.9477 121.429 33.0357 121.429 33.2117C121.429 33.3877 121.385 33.4757 121.297 33.4757C120.417 33.4757 119.713 33.461 119.185 33.4317L116.061 33.3877L113.025 33.4317C112.497 33.461 111.778 33.4757 110.869 33.4757C110.781 33.4757 110.737 33.3877 110.737 33.2117C110.737 33.0357 110.781 32.9477 110.869 32.9477C111.983 32.9477 112.79 32.8744 113.289 32.7277C113.817 32.581 114.169 32.3024 114.345 31.8917C114.55 31.4517 114.653 30.7917 114.653 29.9117V9.53971C114.653 8.65971 114.55 8.01437 114.345 7.60371C114.169 7.19304 113.817 6.91437 113.289 6.76771C112.79 6.59171 111.983 6.50371 110.869 6.50371C110.781 6.50371 110.737 6.41571 110.737 6.23971C110.737 6.06371 110.781 5.97571 110.869 5.97571L113.025 6.01971C114.257 6.07837 115.269 6.10771 116.061 6.10771C116.941 6.10771 117.997 6.07837 119.229 6.01971L121.297 5.97571C121.385 5.97571 121.429 6.06371 121.429 6.23971C121.429 6.41571 121.385 6.50371 121.297 6.50371C120.211 6.50371 119.405 6.59171 118.877 6.76771C118.378 6.94371 118.026 7.25171 117.821 7.69171C117.645 8.10237 117.557 8.74771 117.557 9.62771V29.9117ZM131.55 29.7357C131.55 30.5864 131.638 31.2024 131.814 31.5837C131.99 31.965 132.313 32.229 132.782 32.3757C133.251 32.493 134.014 32.5517 135.07 32.5517H139.866C141.538 32.5517 142.873 32.0384 143.87 31.0117C144.867 29.985 145.527 28.5624 145.85 26.7437C145.85 26.6557 145.923 26.6264 146.07 26.6557C146.246 26.6557 146.334 26.6997 146.334 26.7877C146.07 29.2224 145.938 31.2317 145.938 32.8157C145.938 33.0504 145.894 33.2264 145.806 33.3437C145.718 33.4317 145.542 33.4757 145.278 33.4757H124.95C124.891 33.4757 124.862 33.3877 124.862 33.2117C124.862 33.0357 124.891 32.9477 124.95 32.9477C126.065 32.9477 126.871 32.8744 127.37 32.7277C127.898 32.581 128.25 32.3024 128.426 31.8917C128.602 31.4517 128.69 30.7917 128.69 29.9117V9.53971C128.69 8.65971 128.602 8.01437 128.426 7.60371C128.25 7.19304 127.898 6.91437 127.37 6.76771C126.871 6.59171 126.065 6.50371 124.95 6.50371C124.891 6.50371 124.862 6.41571 124.862 6.23971C124.862 6.06371 124.891 5.97571 124.95 5.97571L127.106 6.01971C128.338 6.07837 129.335 6.10771 130.098 6.10771C130.919 6.10771 131.946 6.07837 133.178 6.01971L135.29 5.97571C135.378 5.97571 135.422 6.06371 135.422 6.23971C135.422 6.41571 135.378 6.50371 135.29 6.50371C134.205 6.50371 133.398 6.59171 132.87 6.76771C132.371 6.91437 132.019 7.20771 131.814 7.64771C131.638 8.05837 131.55 8.70371 131.55 9.58371V29.7357ZM172.856 5.97571C172.915 5.97571 172.944 6.06371 172.944 6.23971C172.944 6.41571 172.915 6.50371 172.856 6.50371C171.8 6.50371 170.729 6.89971 169.644 7.69171C168.559 8.45437 167.591 9.51037 166.74 10.8597L160.844 19.9237V29.9117C160.844 30.821 160.932 31.481 161.108 31.8917C161.284 32.3024 161.621 32.581 162.12 32.7277C162.648 32.8744 163.469 32.9477 164.584 32.9477C164.672 32.9477 164.716 33.0357 164.716 33.2117C164.716 33.3877 164.672 33.4757 164.584 33.4757C163.675 33.4757 162.971 33.461 162.472 33.4317L159.392 33.3877L156.356 33.4317C155.828 33.461 155.109 33.4757 154.2 33.4757C154.112 33.4757 154.068 33.3877 154.068 33.2117C154.068 33.0357 154.112 32.9477 154.2 32.9477C155.315 32.9477 156.121 32.8744 156.62 32.7277C157.148 32.581 157.5 32.3024 157.676 31.8917C157.881 31.4517 157.984 30.7917 157.984 29.9117V20.6277L150.68 9.93571C149.859 8.64504 149.081 7.75037 148.348 7.25171C147.615 6.75304 146.764 6.50371 145.796 6.50371C145.708 6.50371 145.664 6.41571 145.664 6.23971C145.664 6.06371 145.708 5.97571 145.796 5.97571C146.148 5.97571 146.676 6.00504 147.38 6.06371L148.92 6.10771C149.917 6.10771 151.179 6.07837 152.704 6.01971L155.08 5.97571C155.139 5.97571 155.168 6.06371 155.168 6.23971C155.168 6.41571 155.139 6.50371 155.08 6.50371C153.555 6.50371 152.792 6.81171 152.792 7.42771C152.792 7.75037 152.939 8.11704 153.232 8.52771L160.316 18.9117L165.684 10.6837C166.329 9.65704 166.652 8.79171 166.652 8.08771C166.652 7.03171 165.86 6.50371 164.276 6.50371C164.217 6.50371 164.188 6.41571 164.188 6.23971C164.188 6.06371 164.217 5.97571 164.276 5.97571L166.344 6.01971C167.459 6.07837 168.485 6.10771 169.424 6.10771C169.923 6.10771 170.524 6.07837 171.228 6.01971L172.856 5.97571Z" fill="#3A3A3A"/>
<line y1="23.5" x2="20" y2="23.5" stroke="#3A3A3A"/>
<line x1="176" y1="24" x2="196" y2="24" stroke="#3A3A3A"/>
</svg>
