<svg width="70" height="70" viewBox="0 0 70 70" fill="none" xmlns="http://www.w3.org/2000/svg">
<circle cx="35" cy="35" r="33" stroke="#DFC19F" stroke-width="4"/>
<path d="M35 15C31.0218 15 27.2064 16.6014 24.3934 19.452C21.5804 22.3025 20 26.1687 20 30.2V31.3077C20.6073 39.6359 27.4291 46.3333 35 55C42.9049 45.9538 50 39.1026 50 30.2C50 26.1687 48.4196 22.3025 45.6066 19.452C42.7936 16.6014 38.9782 15 35 15ZM35 22.8974C36.4277 22.8974 37.8234 23.3266 39.0104 24.1306C40.1974 24.9346 41.1223 26.0773 41.6682 27.4141C42.2141 28.751 42.3565 30.2219 42.0772 31.6407C41.7979 33.0595 41.1096 34.3625 40.0993 35.3848C39.089 36.4071 37.8022 37.1028 36.4017 37.3838C35.0011 37.6648 33.5498 37.5185 32.2313 36.9635C30.9128 36.4084 29.7864 35.4695 28.9947 34.2656C28.2029 33.0616 27.7814 31.6468 27.7834 30.2C27.7861 28.2623 28.5476 26.4049 29.9007 25.0357C31.2538 23.6665 33.0878 22.8974 35 22.8974Z" stroke="#DFC19F" stroke-width="4" stroke-linecap="round" stroke-linejoin="round"/>
</svg>
