<svg width="70" height="70" viewBox="0 0 70 70" fill="none" xmlns="http://www.w3.org/2000/svg">
<mask id="path-1-inside-1_37_26" fill="white">
<path d="M34.9993 70.0015C54.1131 70.0015 70 54.1482 70 35.0007C70 15.8869 54.0779 0 34.9641 0C15.8181 0 0 15.8869 0 35.0007C0 54.1482 15.8518 70.0015 34.9993 70.0015ZM35.0007 64.1685C18.802 64.1685 5.86371 51.1966 5.86371 35.0007C5.86371 18.8371 18.7668 5.83297 34.9641 5.83297C51.1263 5.83297 64.1304 18.8386 64.1656 35.0007C64.1992 51.1981 51.16 64.1685 34.9978 64.1685M26.7623 43.1001C34.7562 51.1292 44.9493 56.2067 50.9887 50.201C51.2024 49.9899 51.3974 49.7607 51.5714 49.5158C53.1497 47.7662 53.5962 45.4324 51.5714 43.923C49.9931 42.7897 48.3123 41.6243 45.4632 39.6331C43.4735 38.2276 42.169 38.5687 40.6258 40.1134L39.2525 41.4515C38.8411 41.8293 38.1895 41.7956 37.743 41.5204C36.5424 40.8 34.5176 39.1866 32.5952 37.2657C30.708 35.377 28.9935 33.2511 28.3406 32.1179C28.1004 31.7402 27.9291 31.1223 28.4094 30.6773L29.7476 29.2351C31.2922 27.6231 31.6348 26.3874 30.1941 24.3626L25.9731 18.392C24.531 16.3672 22.4388 16.7449 20.1387 18.4608C19.9674 18.5984 19.8312 18.7361 19.6936 18.8722C13.6542 24.9116 18.7668 35.1032 26.7623 43.0987"/>
</mask>
<path d="M34.9993 70.0015C54.1131 70.0015 70 54.1482 70 35.0007C70 15.8869 54.0779 0 34.9641 0C15.8181 0 0 15.8869 0 35.0007C0 54.1482 15.8518 70.0015 34.9993 70.0015ZM35.0007 64.1685C18.802 64.1685 5.86371 51.1966 5.86371 35.0007C5.86371 18.8371 18.7668 5.83297 34.9641 5.83297C51.1263 5.83297 64.1304 18.8386 64.1656 35.0007C64.1992 51.1981 51.16 64.1685 34.9978 64.1685M26.7623 43.1001C34.7562 51.1292 44.9493 56.2067 50.9887 50.201C51.2024 49.9899 51.3974 49.7607 51.5714 49.5158C53.1497 47.7662 53.5962 45.4324 51.5714 43.923C49.9931 42.7897 48.3123 41.6243 45.4632 39.6331C43.4735 38.2276 42.169 38.5687 40.6258 40.1134L39.2525 41.4515C38.8411 41.8293 38.1895 41.7956 37.743 41.5204C36.5424 40.8 34.5176 39.1866 32.5952 37.2657C30.708 35.377 28.9935 33.2511 28.3406 32.1179C28.1004 31.7402 27.9291 31.1223 28.4094 30.6773L29.7476 29.2351C31.2922 27.6231 31.6348 26.3874 30.1941 24.3626L25.9731 18.392C24.531 16.3672 22.4388 16.7449 20.1387 18.4608C19.9674 18.5984 19.8312 18.7361 19.6936 18.8722C13.6542 24.9116 18.7668 35.1032 26.7623 43.0987" fill="#DFC19F"/>
<path d="M64.1656 35.0007L64.6656 34.9997V34.9996L64.1656 35.0007ZM50.9887 50.201L50.6373 49.8453L50.6361 49.8465L50.9887 50.201ZM51.5714 49.5158L51.2001 49.1809L51.1807 49.2025L51.1638 49.2262L51.5714 49.5158ZM51.5714 43.923L51.8703 43.522L51.863 43.5168L51.5714 43.923ZM45.4632 39.6331L45.1747 40.0415L45.1768 40.043L45.4632 39.6331ZM40.6258 40.1134L40.9748 40.4715L40.9795 40.4668L40.6258 40.1134ZM39.2525 41.4515L39.5906 41.8199L39.5961 41.8148L39.6014 41.8097L39.2525 41.4515ZM37.743 41.5204L38.0054 41.0947L38.0002 41.0916L37.743 41.5204ZM32.5952 37.2657L32.2415 37.6191L32.2418 37.6194L32.5952 37.2657ZM28.3406 32.1179L28.7738 31.8683L28.7683 31.8589L28.7625 31.8497L28.3406 32.1179ZM28.4094 30.6773L28.7492 31.044L28.7631 31.0312L28.7759 31.0174L28.4094 30.6773ZM29.7476 29.2351L29.3865 28.8891L29.381 28.895L29.7476 29.2351ZM30.1941 24.3626L29.7858 24.6512L29.7867 24.6525L30.1941 24.3626ZM25.9731 18.392L26.3814 18.1034L26.3804 18.1019L25.9731 18.392ZM20.1387 18.4608L19.8397 18.0601L19.8325 18.0654L19.8255 18.071L20.1387 18.4608ZM19.6936 18.8722L19.3419 18.5168L19.34 18.5187L19.6936 18.8722ZM34.9993 70.5015C54.3889 70.5015 70.5 54.4247 70.5 35.0007H69.5C69.5 53.8718 53.8372 69.5015 34.9993 69.5015V70.5015ZM70.5 35.0007C70.5 15.6101 54.3534 -0.5 34.9641 -0.5V0.5C53.8024 0.5 69.5 16.1637 69.5 35.0007H70.5ZM34.9641 -0.5C15.541 -0.5 -0.5 15.6118 -0.5 35.0007H0.5C0.5 16.1621 16.0952 0.5 34.9641 0.5V-0.5ZM-0.5 35.0007C-0.5 54.4243 15.5756 70.5015 34.9993 70.5015V69.5015C16.128 69.5015 0.5 53.8721 0.5 35.0007H-0.5ZM35.0007 63.6685C19.0788 63.6685 6.36371 50.9212 6.36371 35.0007H5.36371C5.36371 51.472 18.5251 64.6685 35.0007 64.6685V63.6685ZM6.36371 35.0007C6.36371 19.1113 19.0448 6.33297 34.9641 6.33297V5.33297C18.4888 5.33297 5.36371 18.5628 5.36371 35.0007H6.36371ZM34.9641 6.33297C50.8499 6.33297 63.631 19.1147 63.6656 35.0018L64.6656 34.9996C64.6298 18.5624 51.4027 5.33297 34.9641 5.33297V6.33297ZM63.6656 35.0018C63.6987 50.9208 50.8852 63.6685 34.9978 63.6685V64.6685C51.4348 64.6685 64.6998 51.4753 64.6656 34.9997L63.6656 35.0018ZM26.4079 43.4529C30.4347 47.4974 35.0432 50.8287 39.4417 52.385C43.8487 53.9443 48.1359 53.7431 51.3413 50.5555L50.6361 49.8465C47.8021 52.6647 43.973 52.9276 39.7752 51.4423C35.5688 49.9539 31.0838 46.732 27.1166 42.7474L26.4079 43.4529ZM51.34 50.5568C51.5744 50.3253 51.7882 50.0739 51.979 49.8055L51.1638 49.2262C51.0066 49.4474 50.8304 49.6545 50.6373 49.8453L51.34 50.5568ZM51.9427 49.8507C52.7836 48.9185 53.3578 47.7941 53.4218 46.6575C53.4874 45.4936 53.0127 44.3738 51.8702 43.5221L51.2726 44.3238C52.1549 44.9816 52.4694 45.7835 52.4234 46.6012C52.3758 47.4462 51.9375 48.3635 51.2001 49.1809L51.9427 49.8507ZM51.863 43.5168C50.2813 42.3811 48.5963 41.2128 45.7496 39.2233L45.1768 40.043C48.0283 42.0358 49.7049 43.1983 51.2798 44.3291L51.863 43.5168ZM45.7517 39.2248C44.705 38.4854 43.7542 38.1452 42.8108 38.2714C41.8794 38.3959 41.0701 38.9612 40.2721 39.76L40.9795 40.4668C41.7247 39.7209 42.3392 39.3433 42.9433 39.2625C43.5353 39.1834 44.2316 39.3753 45.1747 40.0415L45.7517 39.2248ZM40.2769 39.7553L38.9035 41.0934L39.6014 41.8097L40.9747 40.4715L40.2769 39.7553ZM38.9143 41.0832C38.7137 41.2674 38.3205 41.289 38.0054 41.0947L37.4806 41.946C38.0586 42.3023 38.9684 42.3911 39.5906 41.8199L38.9143 41.0832ZM38.0002 41.0916C36.8467 40.3995 34.8541 38.816 32.9486 36.912L32.2418 37.6194C34.1811 39.5572 36.2382 41.2006 37.4857 41.9491L38.0002 41.0916ZM32.9489 36.9123C31.0748 35.0367 29.3951 32.9466 28.7738 31.8683L27.9073 32.3676C28.5919 33.5557 30.3412 35.7173 32.2415 37.6191L32.9489 36.9123ZM28.7625 31.8497C28.6745 31.7113 28.6116 31.5455 28.6042 31.398C28.5978 31.2688 28.6312 31.1534 28.7492 31.044L28.0695 30.3105C27.7074 30.6462 27.5863 31.0622 27.6055 31.4477C27.6237 31.8148 27.7665 32.1469 27.9186 32.3862L28.7625 31.8497ZM28.7759 31.0174L30.1141 29.5752L29.381 28.895L28.0429 30.3372L28.7759 31.0174ZM30.1086 29.581C30.8998 28.7554 31.4663 27.9455 31.5862 27.0177C31.708 26.075 31.3552 25.1321 30.6015 24.0727L29.7867 24.6525C30.4736 25.6179 30.6699 26.3054 30.5944 26.8896C30.517 27.4889 30.14 28.1029 29.3865 28.8892L30.1086 29.581ZM30.6024 24.074L26.3814 18.1034L25.5648 18.6806L29.7858 24.6512L30.6024 24.074ZM26.3804 18.1019C25.5711 16.9656 24.5304 16.4579 23.3495 16.5244C22.2146 16.5883 21.0207 17.179 19.8397 18.0601L20.4377 18.8616C21.5567 18.0267 22.559 17.5705 23.4057 17.5228C24.2065 17.4777 24.933 17.7935 25.5658 18.6821L26.3804 18.1019ZM19.8255 18.071C19.6301 18.2281 19.4746 18.3856 19.3419 18.5168L20.0452 19.2277C20.1879 19.0866 20.3047 18.9688 20.4518 18.8506L19.8255 18.071ZM19.34 18.5187C16.1346 21.7241 15.9338 26.0117 17.4935 30.4188C19.0501 34.8169 22.3816 39.4252 26.4087 43.4522L27.1158 42.7451C23.1474 38.7767 19.9249 34.2915 18.4362 30.0851C16.9506 25.8876 17.2132 22.0597 20.0471 19.2258L19.34 18.5187Z" fill="#F1F1F1" mask="url(#path-1-inside-1_37_26)"/>
</svg>
