<svg width="18" height="18" viewBox="0 0 18 18" fill="none" xmlns="http://www.w3.org/2000/svg">
<path d="M8.985 0C4.02266 0 0 4.02266 0 8.985C0 13.9473 4.02266 17.97 8.985 17.97C13.9473 17.97 17.97 13.9473 17.97 8.985C17.97 4.02266 13.9473 0 8.985 0ZM12.4405 10.1371C12.4405 10.1371 13.2351 10.9215 13.4307 11.2855C13.4363 11.293 13.4391 11.3005 13.441 11.3043C13.5206 11.4381 13.5393 11.542 13.5 11.6197C13.4344 11.7488 13.2098 11.8125 13.1331 11.8181H11.7292C11.6318 11.8181 11.4278 11.7928 11.1807 11.6225C10.9907 11.4896 10.8035 11.2715 10.621 11.059C10.3487 10.7427 10.1128 10.4694 9.87508 10.4694C9.84488 10.4693 9.81487 10.4741 9.78616 10.4834C9.60646 10.5415 9.37622 10.7979 9.37622 11.4811C9.37622 11.6945 9.20775 11.8171 9.08889 11.8171H8.4459C8.22689 11.8171 7.08598 11.7404 6.07517 10.6744C4.83786 9.36874 3.7241 6.74998 3.71474 6.72565C3.64454 6.55624 3.78961 6.46546 3.94778 6.46546H5.36573C5.55479 6.46546 5.61656 6.58058 5.65961 6.68259C5.71015 6.80146 5.89547 7.27411 6.19965 7.80572C6.69289 8.6724 6.9952 9.02431 7.23761 9.02431C7.28306 9.02377 7.3277 9.01221 7.3677 8.99062C7.68405 8.81466 7.62508 7.68685 7.61104 7.45287C7.61104 7.40888 7.61011 6.9484 7.44819 6.72752C7.33213 6.56747 7.13465 6.50664 7.01485 6.48417C7.06334 6.41727 7.12722 6.36301 7.2011 6.326C7.41824 6.21743 7.80946 6.20152 8.19788 6.20152H8.41408C8.83525 6.20714 8.94382 6.23428 9.09638 6.27265C9.40524 6.34659 9.41179 6.54595 9.38465 7.22825C9.37622 7.42198 9.3678 7.64099 9.3678 7.89931C9.3678 7.95547 9.36499 8.01537 9.36499 8.07901C9.35563 8.42625 9.3444 8.82028 9.58962 8.98219C9.6216 9.00225 9.65856 9.01295 9.69631 9.01308C9.78148 9.01308 10.0379 9.01308 10.7324 7.82163C10.9466 7.43814 11.1327 7.03963 11.2893 6.62924C11.3033 6.60491 11.3445 6.53004 11.3932 6.50102C11.4291 6.48271 11.4689 6.4734 11.5092 6.47388H13.1761C13.3577 6.47388 13.4822 6.50102 13.5056 6.57122C13.5468 6.68259 13.4981 7.02234 12.7372 8.05281L12.3974 8.50112C11.7076 9.40524 11.7076 9.4511 12.4405 10.1371Z" fill="#3A3A3A"/>
</svg>
